<?xml version="1.0" encoding="UTF-8"?><svg id="Layer_1" xmlns="http://www.w3.org/2000/svg" viewBox="0 0 2075.08 1000"><defs><style>.cls-1{stroke:#214188;}.cls-1,.cls-2,.cls-3,.cls-4,.cls-5{stroke-width:6px;}.cls-1,.cls-2,.cls-3,.cls-4,.cls-5,.cls-6{fill:#fff;stroke-miterlimit:10;}.cls-2{stroke:#b5ceec;}.cls-3{stroke:#bfe0b6;}.cls-4{stroke:#fcca59;}.cls-5{stroke:#ffe2a9;}.cls-6{stroke:#e6e6e6;stroke-width:3px;}</style></defs><polygon class="cls-6" points="1090.79 108.53 984.99 108.53 932.09 200.15 984.99 291.78 1090.79 291.78 1143.69 200.15 1090.79 108.53"/><polygon class="cls-6" points="1331.05 108.53 1436.85 108.53 1489.75 200.15 1436.85 291.78 1331.05 291.78 1278.15 200.15 1331.05 108.53"/><polygon class="cls-6" points="917.76 205.54 811.96 205.54 759.07 297.17 811.96 388.79 917.76 388.79 970.66 297.17 917.76 205.54"/><polygon class="cls-6" points="984.99 508.34 1090.79 508.34 1143.69 599.96 1090.79 691.58 984.99 691.58 932.09 599.96 984.99 508.34"/><polygon class="cls-6" points="1609.88 205.54 1504.08 205.54 1451.18 297.17 1504.08 388.79 1609.88 388.79 1662.77 297.17 1609.88 205.54"/><polygon class="cls-3" points="1609.88 406.92 1504.08 406.92 1451.18 498.54 1504.08 590.16 1609.88 590.16 1662.77 498.54 1609.88 406.92"/><polygon class="cls-2" points="1677.1 108.53 1782.9 108.53 1835.8 200.15 1782.9 291.78 1677.1 291.78 1624.21 200.15 1677.1 108.53"/><polygon class="cls-6" points="1677.1 308.43 1782.9 308.43 1835.8 400.06 1782.9 491.68 1677.1 491.68 1624.21 400.06 1677.1 308.43"/><polygon class="cls-6" points="1677.1 508.34 1782.9 508.34 1835.8 599.96 1782.9 691.58 1677.1 691.58 1624.21 599.96 1677.1 508.34"/><polygon class="cls-6" points="571.71 408.38 465.91 408.38 413.01 500.01 465.91 591.63 571.71 591.63 624.61 500.01 571.71 408.38"/><polygon class="cls-1" points="571.71 207.75 465.91 207.75 413.01 299.37 465.91 391 571.71 391 624.61 299.37 571.71 207.75"/><polygon class="cls-6" points="571.71 609.02 465.91 609.02 413.01 700.65 465.91 792.27 571.71 792.27 624.61 700.65 571.71 609.02"/><polygon class="cls-6" points="1263.82 609.02 1158.02 609.02 1105.12 700.65 1158.02 792.27 1263.82 792.27 1316.72 700.65 1263.82 609.02"/><polygon class="cls-6" points="1609.88 608.29 1504.08 608.29 1451.18 699.91 1504.08 791.54 1609.88 791.54 1662.77 699.91 1609.88 608.29"/><polygon class="cls-6" points="1609.88 809.66 1504.08 809.66 1451.18 901.28 1504.08 992.91 1609.88 992.91 1662.77 901.28 1609.88 809.66"/><polygon class="cls-6" points="1263.82 809.66 1158.02 809.66 1105.12 901.28 1158.02 992.91 1263.82 992.91 1316.72 901.28 1263.82 809.66"/><polygon class="cls-6" points="917.76 809.66 811.96 809.66 759.07 901.28 811.96 992.91 917.76 992.91 970.66 901.28 917.76 809.66"/><polygon class="cls-6" points="571.71 809.66 465.91 809.66 413.01 901.28 465.91 992.91 571.71 992.91 624.61 901.28 571.71 809.66"/><polygon class="cls-6" points="917.76 608.29 811.96 608.29 759.07 699.91 811.96 791.54 917.76 791.54 970.66 699.91 917.76 608.29"/><polygon class="cls-6" points="638.94 508.34 744.74 508.34 797.63 599.96 744.74 691.58 638.94 691.58 586.04 599.96 638.94 508.34"/><polygon class="cls-6" points="984.99 708.24 1090.79 708.24 1143.69 799.86 1090.79 891.49 984.99 891.49 932.09 799.86 984.99 708.24"/><polygon class="cls-6" points="1331.05 708.24 1436.85 708.24 1489.75 799.86 1436.85 891.49 1331.05 891.49 1278.15 799.86 1331.05 708.24"/><polygon class="cls-2" points="1677.1 708.24 1782.9 708.24 1835.8 799.86 1782.9 891.49 1677.1 891.49 1624.21 799.86 1677.1 708.24"/><polygon class="cls-6" points="638.94 708.24 744.74 708.24 797.63 799.86 744.74 891.49 638.94 891.49 586.04 799.86 638.94 708.24"/><polygon class="cls-6" points="1263.82 207.75 1158.02 207.75 1105.12 299.37 1158.02 391 1263.82 391 1316.72 299.37 1263.82 207.75"/><polygon class="cls-5" points="917.76 5.15 811.96 5.15 759.07 96.78 811.96 188.4 917.76 188.4 970.66 96.78 917.76 5.15"/><polygon class="cls-6" points="1609.88 5.15 1504.08 5.15 1451.18 96.78 1504.08 188.4 1609.88 188.4 1662.77 96.78 1609.88 5.15"/><polygon class="cls-6" points="1955.93 205.54 1850.13 205.54 1797.23 297.17 1850.13 388.79 1955.93 388.79 2008.83 297.17 1955.93 205.54"/><polygon class="cls-6" points="1955.93 406.92 1850.13 406.92 1797.23 498.54 1850.13 590.16 1955.93 590.16 2008.83 498.54 1955.93 406.92"/><polygon class="cls-6" points="1955.93 608.29 1850.13 608.29 1797.23 699.91 1850.13 791.54 1955.93 791.54 2008.83 699.91 1955.93 608.29"/><polygon class="cls-6" points="1955.93 809.66 1850.13 809.66 1797.23 901.28 1850.13 992.91 1955.93 992.91 2008.83 901.28 1955.93 809.66"/><polygon class="cls-6" points="1955.93 5.15 1850.13 5.15 1797.23 96.78 1850.13 188.4 1955.93 188.4 2008.83 96.78 1955.93 5.15"/><polygon class="cls-6" points="226.38 205.54 120.58 205.54 67.68 297.17 120.58 388.79 226.38 388.79 279.28 297.17 226.38 205.54"/><polygon class="cls-6" points="226.38 406.92 120.58 406.92 67.68 498.54 120.58 590.16 226.38 590.16 279.28 498.54 226.38 406.92"/><polygon class="cls-6" points="226.38 608.29 120.58 608.29 67.68 699.91 120.58 791.54 226.38 791.54 279.28 699.91 226.38 608.29"/><polygon class="cls-6" points="226.38 809.66 120.58 809.66 67.68 901.28 120.58 992.91 226.38 992.91 279.28 901.28 226.38 809.66"/><polygon class="cls-6" points="226.38 5.15 120.58 5.15 67.68 96.78 120.58 188.4 226.38 188.4 279.28 96.78 226.38 5.15"/><polygon class="cls-6" points="571.71 5.15 465.91 5.15 413.01 96.78 465.91 188.4 571.71 188.4 624.61 96.78 571.71 5.15"/><polygon class="cls-6" points="1263.82 5.15 1158.02 5.15 1105.12 96.78 1158.02 188.4 1263.82 188.4 1316.72 96.78 1263.82 5.15"/><polygon class="cls-6" points="1090.79 308.43 984.99 308.43 932.09 400.06 984.99 491.68 1090.79 491.68 1143.69 400.06 1090.79 308.43"/><polygon class="cls-6" points="917.76 406.92 811.96 406.92 759.07 498.54 811.96 590.16 917.76 590.16 970.66 498.54 917.76 406.92"/><polygon class="cls-6" points="1436.85 308.43 1331.05 308.43 1278.15 400.06 1331.05 491.68 1436.85 491.68 1489.75 400.06 1436.85 308.43"/><polygon class="cls-2" points="744.74 308.43 638.94 308.43 586.04 400.06 638.94 491.68 744.74 491.68 797.63 400.06 744.74 308.43"/><polygon class="cls-6" points="744.74 108.53 638.94 108.53 586.04 200.15 638.94 291.78 744.74 291.78 797.63 200.15 744.74 108.53"/><polygon class="cls-6" points="292.88 508.34 398.68 508.34 451.58 599.96 398.68 691.58 292.88 691.58 239.98 599.96 292.88 508.34"/><polygon class="cls-4" points="292.88 708.24 398.68 708.24 451.58 799.86 398.68 891.49 292.88 891.49 239.98 799.86 292.88 708.24"/><polygon class="cls-6" points="984.99 908.14 1090.79 908.14 1143.69 999.77 1090.79 1091.39 984.99 1091.39 932.09 999.77 984.99 908.14"/><polygon class="cls-6" points="1331.05 908.78 1436.85 908.78 1489.75 1000.4 1436.85 1092.03 1331.05 1092.03 1278.15 1000.4 1331.05 908.78"/><polygon class="cls-6" points="1677.1 908.78 1782.9 908.78 1835.8 1000.4 1782.9 1092.03 1677.1 1092.03 1624.21 1000.4 1677.1 908.78"/><polygon class="cls-6" points="638.94 908.14 744.74 908.14 797.63 999.77 744.74 1091.39 638.94 1091.39 586.04 999.77 638.94 908.14"/><polygon class="cls-6" points="292.88 908.78 398.68 908.78 451.58 1000.4 398.68 1092.03 292.88 1092.03 239.98 1000.4 292.88 908.78"/><polygon class="cls-6" points="398.68 308.43 292.88 308.43 239.98 400.06 292.88 491.68 398.68 491.68 451.58 400.06 398.68 308.43"/><polygon class="cls-6" points="398.68 108.53 292.88 108.53 239.98 200.15 292.88 291.78 398.68 291.78 451.58 200.15 398.68 108.53"/><polygon class="cls-3" points="1090.79 -91.37 984.99 -91.37 932.09 .25 984.99 91.87 1090.79 91.87 1143.69 .25 1090.79 -91.37"/><polygon class="cls-3" points="1090.79 908.78 984.99 908.78 932.09 1000.4 984.99 1092.03 1090.79 1092.03 1143.69 1000.4 1090.79 908.78"/><polygon class="cls-6" points="1331.05 -91.37 1436.85 -91.37 1489.75 .25 1436.85 91.87 1331.05 91.87 1278.15 .25 1331.05 -91.37"/><polygon class="cls-3" points="2022.18 108.53 2127.98 108.53 2180.88 200.15 2127.98 291.78 2022.18 291.78 1969.29 200.15 2022.18 108.53"/><polygon class="cls-6" points="2022.18 508.34 2127.98 508.34 2180.88 599.96 2127.98 691.58 2022.18 691.58 1969.29 599.96 2022.18 508.34"/><polygon class="cls-6" points="2022.18 708.24 2127.98 708.24 2180.88 799.86 2127.98 891.49 2022.18 891.49 1969.29 799.86 2022.18 708.24"/><polygon class="cls-6" points="2127.98 308.43 2022.18 308.43 1969.29 400.06 2022.18 491.68 2127.98 491.68 2180.88 400.06 2127.98 308.43"/><polygon class="cls-6" points="2022.18 908.78 2127.98 908.78 2180.88 1000.4 2127.98 1092.03 2022.18 1092.03 1969.29 1000.4 2022.18 908.78"/><polygon class="cls-6" points="2022.18 -91.37 2127.98 -91.37 2180.88 .25 2127.98 91.87 2022.18 91.87 1969.29 .25 2022.18 -91.37"/><polygon class="cls-6" points="1677.1 -91.37 1782.9 -91.37 1835.8 .25 1782.9 91.87 1677.1 91.87 1624.21 .25 1677.1 -91.37"/><polygon class="cls-6" points="744.74 -91.37 638.94 -91.37 586.04 .25 638.94 91.87 744.74 91.87 797.63 .25 744.74 -91.37"/><polygon class="cls-6" points="744.74 908.78 638.94 908.78 586.04 1000.4 638.94 1092.03 744.74 1092.03 797.63 1000.4 744.74 908.78"/><polygon class="cls-6" points="398.68 -91.37 292.88 -91.37 239.98 .25 292.88 91.87 398.68 91.87 451.58 .25 398.68 -91.37"/><polygon class="cls-6" points="1263.82 406.92 1158.02 406.92 1105.12 498.54 1158.02 590.16 1263.82 590.16 1316.72 498.54 1263.82 406.92"/><polygon class="cls-4" points="1331.05 506.13 1436.85 506.13 1489.75 597.76 1436.85 689.38 1331.05 689.38 1278.15 597.76 1331.05 506.13"/><polygon class="cls-6" points="-52.44 508.34 53.35 508.34 106.25 599.96 53.35 691.58 -52.44 691.58 -105.34 599.96 -52.44 508.34"/><polygon class="cls-6" points="-52.44 708.24 53.35 708.24 106.25 799.86 53.35 891.49 -52.44 891.49 -105.34 799.86 -52.44 708.24"/><polygon class="cls-6" points="-52.44 908.78 53.35 908.78 106.25 1000.4 53.35 1092.03 -52.44 1092.03 -105.34 1000.4 -52.44 908.78"/><polygon class="cls-6" points="53.35 308.43 -52.44 308.43 -105.34 400.06 -52.44 491.68 53.35 491.68 106.25 400.06 53.35 308.43"/><polygon class="cls-3" points="53.35 108.53 -52.44 108.53 -105.34 200.15 -52.44 291.78 53.35 291.78 106.25 200.15 53.35 108.53"/><polygon class="cls-6" points="53.35 -91.37 -52.44 -91.37 -105.34 .25 -52.44 91.87 53.35 91.87 106.25 .25 53.35 -91.37"/></svg>